<svg version="1.1" id="Layer_1" xmlns="http://www.w3.org/2000/svg" xmlns:xlink="http://www.w3.org/1999/xlink" x="0px" y="0px"
	 width="100%" viewBox="0 0 368 240" enable-background="new 0 0 368 240" xml:space="preserve">
<path fill="#000000" opacity="1.000000" stroke="none" 
	d="
M237.326385,126.036903 
	C239.404434,133.085495 237.193878,138.473648 232.554260,143.239166 
	C231.113373,144.719162 228.697739,145.979202 229.968964,149.252533 
	C233.721420,147.819473 235.613724,144.764267 238.071152,142.461411 
	C241.351486,139.387405 244.325974,135.980286 247.675430,132.989029 
	C250.349625,130.600830 250.654953,128.764938 247.957153,126.073524 
	C226.734222,104.900841 205.614670,83.624573 184.448044,62.395386 
	C184.117599,62.063950 183.594467,61.924629 181.897888,60.488037 
	C178.416428,64.463882 175.054688,68.552986 171.425552,72.389145 
	C165.932129,78.195953 160.272171,83.846138 154.638885,89.519096 
	C153.151840,91.016617 151.644104,93.097397 149.287491,90.635208 
	C147.096054,88.345581 149.213791,87.065475 150.549637,85.719856 
	C160.290436,75.907913 170.151733,66.213524 179.772919,56.286186 
	C182.622879,53.345566 184.509705,53.802914 187.140839,56.462906 
	C210.097900,79.671829 233.117340,102.819359 256.203552,125.899788 
	C258.723145,128.418716 258.466156,130.256546 256.129272,132.579010 
	C246.203964,142.443039 236.313965,152.343521 226.505844,162.323822 
	C224.379333,164.487640 222.736023,164.464813 220.657745,162.355026 
	C211.656357,153.217209 202.611176,144.122009 193.519150,135.074387 
	C191.513275,133.078323 191.734451,131.485428 193.632675,129.597672 
	C201.546432,121.727524 209.396576,113.793404 217.270309,105.883018 
	C218.644226,104.502716 220.094162,103.278297 221.924805,105.151855 
	C227.932114,111.300011 235.156677,116.547028 237.326385,126.036903 
M210.479691,122.111565 
	C208.200058,123.205551 206.005173,124.662872 208.315994,127.302757 
	C212.771133,132.392334 217.541702,137.205856 221.920380,141.856537 
	C224.661438,140.412811 225.920914,139.439880 226.076004,137.875137 
	C220.955673,132.559784 216.003250,127.418747 210.479691,122.111565 
z"/>
<path fill="#000000" opacity="1.000000" stroke="none" 
	d="
M188.592361,71.417564 
	C192.928223,75.999596 197.561493,79.852760 199.604767,85.826180 
	C201.830200,92.332199 201.388748,98.238701 196.744431,103.547073 
	C195.648499,104.799713 194.485794,105.994133 193.396088,107.251976 
	C192.339340,108.471764 190.775208,109.587044 192.500977,111.453400 
	C194.234924,113.328583 195.693970,112.575577 197.160660,111.112015 
	C201.639694,106.642540 206.112274,102.166306 210.627747,97.733841 
	C211.842651,96.541260 212.926758,94.688133 215.138474,96.060135 
	C215.533859,98.267937 213.753311,99.076889 212.676697,100.187721 
	C204.799164,108.315392 196.788269,116.314850 188.976105,124.504219 
	C186.658661,126.933571 184.990707,126.734116 182.781235,124.481621 
	C174.036545,115.566673 165.248627,106.692253 156.353256,97.928139 
	C153.662292,95.276855 154.033813,93.365807 156.606018,90.891312 
	C163.323959,84.428520 169.853638,77.769630 176.440125,71.170731 
	C182.334900,65.264832 182.324158,65.254112 188.592361,71.417564 
M173.327759,84.772667 
	C169.633118,85.744934 168.345856,87.448792 171.560760,90.542839 
	C175.397827,94.235664 179.235382,97.928040 183.055359,101.638504 
	C184.337326,102.883720 185.541245,103.892181 187.284317,102.234344 
	C189.241226,100.373093 188.119583,98.997902 186.724869,97.624046 
	C182.456970,93.420006 178.176849,89.228363 173.327759,84.772667 
z"/>
<path fill="#000000" opacity="1.000000" stroke="none" 
	d="
M174.717407,138.718094 
	C167.666122,145.831635 160.891373,152.722946 154.031219,159.528152 
	C152.979263,160.571671 151.733322,162.771820 149.993698,161.007385 
	C148.339050,159.329147 150.326279,158.046265 151.433670,156.917862 
	C155.867996,152.399490 160.348694,147.926666 164.803818,143.428650 
	C166.141937,142.077637 167.441284,140.723923 165.676559,138.753601 
	C163.731644,136.582092 162.332962,138.174225 161.185928,139.541260 
	C151.146713,151.505951 138.249268,147.366135 129.528442,138.541061 
	C119.319298,128.209854 119.271194,128.343918 129.585297,118.271255 
	C134.469894,113.500977 139.156281,108.527657 143.928406,103.642334 
	C148.311584,99.155182 148.682526,99.133965 152.989349,103.433441 
	C161.007614,111.438034 168.826797,119.655106 177.107300,127.377998 
	C180.821045,130.841644 181.347168,133.335983 177.102692,136.368958 
	C176.300278,136.942352 175.673706,137.761795 174.717407,138.718094 
M150.218170,131.241104 
	C151.056015,132.049484 151.864227,132.891632 152.738266,133.658768 
	C154.265717,134.999390 155.460144,134.146927 156.617798,133.018936 
	C157.852509,131.815872 157.600708,130.658585 156.542084,129.542282 
	C151.884842,124.631317 147.214935,119.732346 142.560608,114.840576 
	C140.334839,116.489853 138.795654,117.216888 138.658127,120.316788 
	C141.996628,123.461960 145.861572,127.103104 150.218170,131.241104 
z"/>
<path fill="#000000" opacity="1.000000" stroke="none" 
	d="
M187.957947,159.022675 
	C191.424332,157.462891 193.481644,154.281830 196.151291,151.816223 
	C197.978226,150.128922 199.433594,149.958038 201.237534,151.794922 
	C206.255829,156.904877 211.334396,161.956467 216.440430,166.978989 
	C218.236618,168.745819 218.242126,170.280869 216.453308,172.073059 
	C206.099136,182.446777 195.766678,192.842438 185.477325,203.280396 
	C182.727539,206.069901 181.113327,203.906021 179.337601,202.117325 
	C164.787521,187.461090 150.245605,172.796753 135.686539,158.149445 
	C127.468147,149.881256 119.320518,141.538666 110.936180,133.441681 
	C107.926010,130.534683 107.429085,128.585251 110.744514,125.391975 
	C120.459076,116.035301 129.826431,106.318718 139.371658,96.785042 
	C140.796875,95.361557 142.167938,92.853096 144.660904,95.207573 
	C147.239105,97.642532 144.633118,99.065033 143.256134,100.461418 
	C135.420425,108.407570 127.498436,116.268555 119.620697,124.173370 
	C118.224373,125.574501 116.898361,127.045700 115.669426,128.347321 
	C116.033081,130.718292 117.707039,131.724319 118.961105,132.983963 
	C138.938797,153.050217 159.027679,173.006912 178.865540,193.210175 
	C182.323685,196.732056 184.480026,196.679504 187.609390,193.112152 
	C191.226929,188.988281 195.133865,185.073975 199.242661,181.438858 
	C202.752228,178.333908 202.925766,176.156464 199.486465,172.598038 
	C195.512329,168.486252 190.500717,165.181824 188.015717,159.351105 
	C187.988953,159.002914 187.957947,159.022675 187.957947,159.022675 
z"/>
<path fill="#000000" opacity="1.000000" stroke="none" 
	d="
M236.973267,175.949951 
	C237.011597,178.360596 237.917969,180.382584 240.589935,182.179031 
	C236.146011,184.986435 234.846436,191.488205 227.526993,189.429169 
	C229.294662,191.345795 229.550964,193.082336 227.631104,194.926758 
	C221.962982,200.372177 216.530426,206.068207 210.743698,211.380814 
	C209.350525,212.659851 209.825699,213.455795 210.015411,214.724518 
	C210.385437,217.199341 209.028854,219.734238 206.954391,219.720490 
	C201.373322,219.683502 199.159882,224.047653 195.805725,226.983673 
	C195.076584,227.621918 194.240768,228.138275 193.321899,228.806976 
	C190.851624,226.477234 188.494583,224.254303 186.092773,221.989120 
	C186.180191,220.044281 187.294601,219.049637 189.155060,218.574554 
	C191.470993,219.559662 191.252792,223.268723 194.730042,223.479172 
	C191.333939,218.487000 194.291183,217.615051 198.086975,214.724197 
	C201.087082,212.439346 205.607834,208.093994 205.149780,201.884109 
	C211.184341,204.961380 211.280472,195.885895 216.357132,197.518173 
	C217.064117,195.347931 213.599014,193.629501 215.952682,191.910233 
	C218.059540,190.371231 218.708054,193.834381 221.011002,193.772781 
	C219.698135,189.436691 223.949356,188.416641 225.855118,185.887390 
	C227.738083,183.388428 229.510056,179.647171 234.017090,183.378204 
	C231.091095,179.450638 232.505966,177.314819 236.662170,176.042969 
	C236.997147,175.989105 236.973267,175.949951 236.973267,175.949951 
z"/>
<path fill="#000000" opacity="1.000000" stroke="none" 
	d="
M139.093323,190.932495 
	C143.767914,186.451599 144.438568,186.525665 146.406601,191.765305 
	C147.598801,192.283310 148.934540,190.459534 149.313110,190.957672 
	C151.394196,193.642685 148.971375,194.523224 149.052689,195.056793 
	C152.582352,200.441040 160.231171,201.758591 159.772034,209.439774 
	C161.101135,208.362289 163.007889,208.455246 164.511261,210.152618 
	C166.130402,211.980667 164.513077,213.779785 163.519257,215.888062 
	C165.592972,214.969894 166.449875,213.749496 167.146713,212.424850 
	C167.962585,210.873947 169.072006,209.894226 170.671570,211.168686 
	C172.338882,212.497116 171.320847,213.820450 170.179581,214.939301 
	C169.237610,215.862747 168.244659,216.734192 166.861572,218.009094 
	C169.597290,217.794418 172.110825,216.682495 173.433609,219.456635 
	C174.409012,221.502228 173.199493,222.900589 171.770630,224.204727 
	C170.050415,225.774765 168.537476,225.503677 167.021484,223.903061 
	C159.814102,216.293381 152.058548,209.224548 145.239304,201.214951 
	C143.069946,198.666901 139.541519,197.281372 138.075653,193.279663 
	C138.426056,192.069565 138.759689,191.501038 139.093323,190.932495 
z"/>
<path fill="#000000" opacity="1.000000" stroke="none" 
	d="
M156.697784,56.673347 
	C156.765732,56.179996 156.658752,55.542423 156.928406,55.215397 
	C159.922729,51.583946 159.938492,51.596935 157.016541,47.361191 
	C160.653564,46.551964 165.128403,51.107826 167.599609,45.967209 
	C169.195602,42.647179 172.871490,40.022003 170.761200,35.880787 
	C173.541290,34.487331 174.455826,37.277420 176.253250,37.076740 
	C180.621582,36.404293 178.118973,29.720108 183.262085,29.868383 
	C181.528641,25.611620 176.714432,24.694538 175.102783,20.502344 
	C177.554276,19.060104 178.821747,14.851522 182.919220,18.823751 
	C190.358704,26.035809 190.845367,26.927460 186.559555,31.944349 
	C185.173508,33.566853 182.766434,34.668793 182.090897,36.480381 
	C180.099564,41.820354 177.932022,45.744171 171.523605,47.727859 
	C168.161179,48.768677 163.739044,52.488094 162.045288,57.192997 
	C161.623657,58.364246 160.141068,58.344719 158.323914,57.991882 
	C157.366119,57.354778 157.031952,57.014061 156.697784,56.673347 
z"/>
<path fill="#000000" opacity="1.000000" stroke="none" 
	d="
M116.652451,164.139801 
	C118.977280,165.121292 119.232109,159.249161 121.833916,162.437378 
	C124.223381,165.365417 119.550659,166.198456 119.268410,168.768707 
	C121.453293,168.290085 123.845169,168.247513 124.932541,170.865112 
	C125.726585,172.776627 124.135780,173.889053 123.002800,175.084641 
	C121.164154,177.024918 119.423172,176.641449 118.003159,174.686920 
	C113.590851,168.613800 106.742210,164.860916 102.783661,158.202225 
	C101.640465,156.279251 97.882408,155.808151 97.103775,152.347656 
	C101.179871,150.507080 102.707245,142.850952 109.558739,147.235611 
	C110.127174,149.954468 108.002724,151.509491 106.994827,153.631287 
	C110.538612,156.731125 115.404900,158.645889 116.652451,164.139801 
z"/>
<path fill="#000000" opacity="1.000000" stroke="none" 
	d="
M280.004639,135.800934 
	C281.015015,136.182449 282.440979,136.469696 281.264099,135.195312 
	C279.659485,133.457718 278.110382,131.929703 277.937439,129.308899 
	C281.321075,127.920937 282.122284,131.622650 284.353210,132.101639 
	C284.473114,131.862061 284.757538,131.536453 284.684631,131.395096 
	C283.712769,129.510437 283.033203,127.589134 285.100739,126.050072 
	C286.585632,124.944748 287.977448,125.721649 289.058350,126.902794 
	C290.747345,128.748383 290.997284,131.041870 289.354614,132.772217 
	C284.342926,138.051315 279.106262,143.118225 273.912079,148.221786 
	C272.503876,149.605423 270.928192,149.357452 269.375519,148.314972 
	C268.086578,147.449570 266.755432,146.744797 265.381134,148.323883 
	C265.156067,150.830673 268.091034,150.386597 268.995789,152.345963 
	C268.039124,154.889099 266.931396,156.795624 264.127533,153.450760 
	C263.608826,152.831955 262.968262,151.959717 262.306610,151.884506 
	C260.484650,151.677429 257.579681,152.843979 257.864685,149.776169 
	C258.129211,146.928787 260.699890,144.453232 263.408112,144.093628 
	C268.058594,143.476074 270.965332,141.011780 273.473755,137.472458 
	C275.029602,135.277191 276.939087,133.763733 280.004639,135.800934 
z"/>
<path fill="#000000" opacity="1.000000" stroke="none" 
	d="
M188.002686,158.991211 
	C182.254990,157.547760 179.918335,152.143997 176.044113,148.537674 
	C175.078903,147.639221 175.991165,146.380188 176.853317,145.509613 
	C178.017548,144.334015 179.170273,143.147018 180.336700,141.973618 
	C185.613007,136.665741 185.474625,136.795914 190.615570,142.351166 
	C192.700714,144.604340 197.591721,145.275787 196.358902,149.203598 
	C195.464172,152.054230 192.169144,154.149811 189.950745,156.587830 
	C189.394440,157.199188 188.862503,157.832718 188.138657,158.739365 
	C187.957947,159.022675 187.988953,159.002914 188.002686,158.991211 
z"/>
<path fill="#000000" opacity="1.000000" stroke="none" 
	d="
M218.357208,59.970707 
	C220.049179,61.402267 220.868958,62.813618 219.485840,64.475967 
	C218.352127,65.838539 216.711838,65.573212 215.324173,64.986870 
	C211.547256,63.390976 208.934692,60.290836 206.100571,57.497932 
	C205.275726,56.685089 204.553894,55.056465 203.754929,55.037121 
	C194.387253,54.810299 196.547470,45.640842 192.836853,41.078072 
	C191.379318,39.285828 192.596832,38.161514 194.676682,37.674458 
	C197.964951,36.904415 197.943848,36.814331 199.575073,33.999466 
	C203.456985,35.641361 203.456985,35.641361 198.063339,43.436890 
	C198.775223,47.959827 205.134979,46.834198 205.492172,51.269218 
	C208.026260,51.357254 207.600830,48.433872 209.893082,48.271111 
	C213.708206,50.716618 209.263519,51.902786 208.700714,53.659836 
	C211.164612,58.759956 212.228363,58.921665 215.761002,54.733120 
	C218.297577,51.725578 218.297577,51.725574 221.098358,51.352753 
	C222.659485,55.065197 215.898758,55.844948 218.357208,59.970707 
z"/>
<path fill="#000000" opacity="1.000000" stroke="none" 
	d="
M255.642670,108.147217 
	C251.584732,106.802017 247.039078,107.405563 244.309326,102.944771 
	C248.418869,101.179794 253.794800,107.828316 255.909454,99.736092 
	C258.469452,102.518105 261.059814,104.012299 260.607941,107.328598 
	C263.922546,108.652374 264.237549,104.860260 266.569977,104.096153 
	C269.136658,106.597786 265.908112,108.500443 265.874207,111.057938 
	C269.825806,109.638382 269.951874,103.785599 274.840973,103.431625 
	C275.580902,108.714767 268.156311,110.317520 269.661255,115.835655 
	C273.828583,114.551590 274.623016,109.467651 278.804138,108.285667 
	C280.701996,112.053963 277.268707,113.186516 275.770874,114.855515 
	C270.262451,120.993507 270.038422,121.024521 264.301880,115.229584 
	C261.726257,112.627716 258.915039,110.436371 255.642670,108.147217 
z"/>
<path fill="#000000" opacity="1.000000" stroke="none" 
	d="
M156.432007,56.656799 
	C157.031952,57.014061 157.366119,57.354778 157.937912,57.964615 
	C157.363602,61.275814 154.699646,63.033329 153.103424,65.534355 
	C151.962830,67.321480 149.510925,68.353516 150.838821,71.394913 
	C151.424515,72.736420 149.712250,73.917015 148.043365,74.208076 
	C142.272507,75.214561 139.460159,78.006180 138.093643,83.686005 
	C137.381775,86.644836 136.272964,89.865257 132.660614,89.858337 
	C130.115753,89.853470 128.824234,87.686905 129.034195,85.069237 
	C130.873459,83.527115 132.537735,87.836212 134.259293,84.824051 
	C135.568192,82.533928 133.633865,81.135323 133.052765,79.139015 
	C137.036041,75.573860 143.283051,74.029373 144.186890,67.507355 
	C150.399612,66.331772 152.007370,60.079914 156.432007,56.656799 
z"/>
<path fill="#000000" opacity="1.000000" stroke="none" 
	d="
M222.362305,67.267998 
	C223.406570,68.238785 224.141525,69.085304 224.905121,69.964828 
	C228.727295,68.128769 229.618301,63.315304 233.613281,61.993698 
	C237.352646,66.974701 236.099747,69.698334 227.598373,75.760704 
	C222.154938,71.869659 214.047913,76.454605 209.468369,69.473495 
	C214.130997,70.544960 218.450745,70.409302 222.362305,67.267998 
z"/>
<path fill="#000000" opacity="1.000000" stroke="none" 
	d="
M107.259888,120.741302 
	C106.462425,121.962456 106.115051,123.282829 104.477859,122.851631 
	C103.305710,121.216553 104.708427,119.716560 104.810455,118.146454 
	C104.853455,117.484848 105.315376,116.500854 105.032768,116.219009 
	C98.581345,109.784988 106.574196,108.483856 108.901222,105.189079 
	C109.090591,104.920959 109.247162,104.629692 109.597588,104.057518 
	C108.958031,102.652153 105.076752,102.275284 107.489487,99.498848 
	C109.826393,96.809685 111.088715,100.777130 112.873680,100.543205 
	C115.876724,99.327774 112.805138,97.249901 113.677582,95.797630 
	C118.213989,96.405640 119.229164,98.300880 116.988914,101.774666 
	C116.898926,101.914200 116.826355,102.088219 116.697800,102.176292 
	C110.284927,106.569275 108.248260,113.186615 107.259888,120.741302 
z"/>
<path fill="#000000" opacity="1.000000" stroke="none" 
	d="
M253.286346,99.327087 
	C251.995407,100.661674 250.625870,100.948067 249.508408,99.970566 
	C243.968811,95.124794 237.582672,91.079872 234.778366,83.666435 
	C233.959915,81.502777 234.377411,80.341293 236.341690,80.000313 
	C238.507843,79.624290 240.320175,79.641930 240.934875,76.722275 
	C241.249664,75.227203 243.183197,75.933327 244.172714,76.995682 
	C245.264435,78.167763 245.789124,79.383171 244.505264,80.913925 
	C239.660370,86.690628 239.863449,86.540924 245.257416,91.901649 
	C247.856873,94.485123 252.338486,94.849236 253.286346,99.327087 
z"/>
<path fill="#000000" opacity="1.000000" stroke="none" 
	d="
M91.560219,127.406555 
	C91.262886,130.136459 91.438477,132.642303 91.031639,135.049744 
	C90.575165,137.750961 88.774147,139.583572 85.883499,139.629303 
	C83.307533,139.670059 81.988762,138.139984 81.890938,135.313614 
	C83.648354,134.392868 86.061882,137.625336 87.438141,134.583496 
	C88.682716,131.832687 87.266373,129.797516 85.318649,127.845787 
	C88.933556,123.433327 94.460991,121.336304 96.864548,116.664444 
	C96.203033,113.738617 93.028122,115.061707 91.817627,112.362137 
	C94.685852,110.189850 97.078125,112.612930 99.013840,113.633972 
	C101.332207,114.856850 101.011856,117.417793 99.417526,119.250977 
	C97.018631,122.009270 94.337349,124.521973 91.560219,127.406555 
z"/>
<path fill="#000000" opacity="1.000000" stroke="none" 
	d="
M259.782532,161.766846 
	C257.371582,164.657028 255.152542,167.274170 252.754608,169.715576 
	C250.680603,171.827209 248.569031,171.466232 246.864243,169.156464 
	C245.146606,166.829315 246.390213,163.835739 245.220215,161.227524 
	C244.747452,160.173645 246.768936,159.210083 248.176666,160.069183 
	C249.427017,160.832260 250.484634,161.911087 252.020966,163.174164 
	C252.836823,160.887833 251.837814,157.471619 255.156021,157.228683 
	C257.838867,157.032272 259.203827,159.006744 259.782532,161.766846 
z"/>
<path fill="#000000" opacity="1.000000" stroke="none" 
	d="
M131.754303,187.166229 
	C128.656876,185.939575 126.986794,183.181015 124.393303,180.742554 
	C127.153831,178.473145 129.662277,176.410980 132.634216,173.967804 
	C134.923584,174.566254 133.871719,177.151703 133.759201,179.516785 
	C134.887726,178.836060 135.530075,176.715027 137.194000,178.439514 
	C138.308640,179.594711 138.407578,180.707077 137.136078,181.851517 
	C135.908020,182.956848 134.735977,184.124420 133.123779,185.764099 
	C132.390259,186.564453 132.072281,186.865341 131.754303,187.166229 
z"/>
<path fill="#000000" opacity="1.000000" stroke="none" 
	d="
M183.136871,237.247757 
	C178.073410,235.742249 179.346222,231.247543 178.677567,228.103836 
	C178.284821,226.257248 180.903625,225.587128 182.692856,227.179855 
	C184.752029,229.012939 186.703735,230.966766 188.895889,233.052490 
	C187.748245,235.248779 186.419861,237.182556 183.136871,237.247757 
z"/>
<path fill="#000000" opacity="1.000000" stroke="none" 
	d="
M131.852615,187.496506 
	C132.072281,186.865341 132.390259,186.564453 132.927582,186.017593 
	C135.184158,185.863647 136.727615,182.847275 139.037292,184.787231 
	C141.037750,186.467468 139.956177,188.366165 139.196320,190.572357 
	C138.759689,191.501038 138.426056,192.069565 137.983597,192.952606 
	C134.928268,192.511932 133.132660,190.503586 131.852615,187.496506 
z"/>
<path fill="#000000" opacity="1.000000" stroke="none" 
	d="
M237.010529,176.007629 
	C237.401550,174.221558 237.692123,172.306976 239.977066,171.934906 
	C241.707718,171.653061 242.678650,173.015091 243.741684,174.005615 
	C245.421967,175.571335 245.154999,177.253464 243.677444,178.789536 
	C241.975052,180.559341 240.486938,180.037918 239.151016,178.245743 
	C238.658295,177.584717 238.054321,177.006607 237.237183,176.170319 
	C236.973267,175.949951 236.997147,175.989105 237.010529,176.007629 
z"/>
</svg>